<svg id="Layer_1" data-name="Layer 1" xmlns="http://www.w3.org/2000/svg" viewBox="0 0 858 768"><title>cover_side</title><path d="M104.33,370.56c1.6.11,1.25-1.27,1.52-2.09,7.85-24,35.4-33.36,56.14-18.93,4.56,3.17,8.57,7.14,10.76,12.32,1.39,3.28,3.38,3.93,6.6,3.92,32.79-.09,65.58,0,98.38-.1a5.24,5.24,0,0,1,4.87,2.52q30.18,42.85,60.44,85.64a4.5,4.5,0,0,0,4.18,2c9-.06,18.1,0,27.16,0,16.85,0,33.71,0,50.84.68q-7,5-14.07,10.07c-7.47,5.29-15,10.54-22.42,15.86a7,7,0,0,1-4.27,1.38c-11.91,0-23.86.54-35.71-.22-4.27-.27-8.25-.83-12.52.1-2.38.52-5.5,1.06-7.51-1.26a50.19,50.19,0,0,1-4.83-7c-6.42-10.69-14.07-20.52-21.17-30.73-11.38-16.4-23-32.65-34.39-49a5.51,5.51,0,0,0-5.07-2.79q-42.72.13-85.44,0c-2.18,0-3.42.43-4.55,2.64-6.27,12.25-16.44,19.13-30.15,20.07-14.66,1-25.71-5.38-33.61-17.62-2.34-3.64-3-7.94-5.18-11.62Zm21.14,8.34c0,9.12,6.51,16.09,15.2,16.17a15.81,15.81,0,0,0,16-16.25c0-8.34-7.34-15.41-15.87-15.37A15.47,15.47,0,0,0,125.47,378.9Z" style="fill:#666868"/><path d="M444.94,52.49c2.23,1.61,5,1.46,7.53,2.48,15,6.09,24.88,21.64,22.76,38.2-1.58,12.38-8.09,21.9-19.11,28-2.68,1.49-3.56,3.35-3.56,6.37,0,33.13-.06,66.26-.08,99.39,0,3.72-3.43,4.53-5.46,5.93-7.44,5.13-14.81,10.37-22.21,15.56Q404,263.05,383.19,277.75c-6.38,4.5-12.7,9.07-19.09,13.54-1.65,1.15-2,2.61-2,4.52q.09,35.28.05,70.57c0,1.28-.1,2.56-.19,4.51-3.14-3-4.87-6.23-7-9.14-6.58-9-13-18.17-19.5-27.26a5.6,5.6,0,0,1-1.12-3.38c0-17,0-34-.09-51,0-2.79,2.34-3.52,3.8-4.52,15.13-10.33,30-21,45-31.59q19.25-13.56,38.57-27a7.23,7.23,0,0,0,3.58-6.71q-.21-41.42,0-82.82c0-3.27-1-4.83-3.94-6.5-11.29-6.47-17.94-16.2-18.8-29.46-1-15.56,6-26.71,18.93-34.73,2.33-1.45,5.85-.93,7-4.25Zm9.44,36.82c.81-9.41-8.37-16-15.39-15.72-9.17.42-16,6.79-16,15.71,0,8.61,7.2,15.4,16,15.48C446.88,104.84,455.2,97.43,454.38,89.31Z" style="fill:#f39522"/><path d="M508.6,395.63q9.89,14,19.76,28a4.48,4.48,0,0,0,.33.57c6.65,6.34,7.5,14.27,7.15,23-.5,12.57-.17,25.18-.06,37.76a5,5,0,0,1-2.41,4.62q-43.44,30.49-86.86,61c-1.65,1.16-1.6,2.41-1.6,3.92,0,26.72.15,53.43-.12,80.14-.06,5.72.91,9.15,6.53,12.39,12.78,7.36,18.89,23.67,15.74,37.89a36.67,36.67,0,1,1-56.72-37.83,3.09,3.09,0,0,1,.84-.52c5.64-1.51,6.4-5.4,6.35-10.73-.25-30.81,0-61.62-.18-92.43,0-4.2,1.06-6.89,4.75-9.42,17.56-12,34.86-24.38,52.23-36.66,10.35-7.32,20.62-14.74,31-22a5.62,5.62,0,0,0,2.57-5.24q-.11-35.11-.07-70.24v-4ZM446.93,677a15.79,15.79,0,1,0-16.09,15.63C440.06,692.65,446.91,686,446.93,677Z" style="fill:#329eb4"/><path d="M401.73,428.79c-12.81,0-25.61-.12-38.42.08a7.35,7.35,0,0,1-7-3.59c-19.85-28.39-39.86-56.65-59.77-85a4.57,4.57,0,0,0-4.25-2.33q-19.71.12-39.41,0c-2.1,0-3.08.75-4,2.57-7.64,15.59-25.49,23.8-41.89,19.38-16.65-4.48-28.55-20.2-27.57-36.44,1.11-18.41,14.25-33.19,31.63-35.57C226.26,285.79,241.78,294,249,308a4.06,4.06,0,0,0,4.28,2.58c17.78-.05,35.55.07,53.32,0a4.86,4.86,0,0,1,4.53,2.47q30.24,42.84,60.55,85.65a4.88,4.88,0,0,0,4.58,2.37c21.31-.09,42.62-.05,63.92-.06,4.86,0,4.85,0,4.84,4.94,0,6.3-.18,12.6.06,18.88.11,3.07-.54,4.11-3.89,4.06C428,428.65,414.87,428.79,401.73,428.79Zm-170-104.13a15.37,15.37,0,0,0-15.29-15.75,15.57,15.57,0,0,0-16,15.5,15.94,15.94,0,0,0,15.56,15.7A15.65,15.65,0,0,0,231.75,324.66Z" style="fill:#666868"/><path d="M480.68,416c0,13.47,0,26.94,0,40.41a4.63,4.63,0,0,1-2.19,4.35q-43.08,30.21-86.11,60.49a5.49,5.49,0,0,0-2.63,5.16c.11,12.59.14,25.17,0,37.76,0,2.69.87,4,3.2,5.25,14.23,7.78,21,20.06,19.53,36.07-1.35,15.07-9.74,25.56-23.95,30.86-16.72,6.24-35.43-.93-44.47-16.64-8.4-14.6-4.88-34.15,8.17-45.47a24.75,24.75,0,0,1,7.1-4.79c2.84-1.08,3.24-2.91,3.23-5.59-.1-17.23,0-34.45-.1-51.67a6,6,0,0,1,3-5.61q42.36-29.81,84.64-59.72a5.76,5.76,0,0,0,2.83-5.38c-.11-22,0-43.93-.12-65.9,0-2.78.48-3.85,3.56-3.73,6.95.26,13.91.2,20.86,0,2.67-.07,3.54.56,3.51,3.39C480.59,388.8,480.67,402.38,480.68,416ZM360.77,601.86a15.61,15.61,0,0,0,15.47,15.67,15.66,15.66,0,1,0,0-31.31A15.59,15.59,0,0,0,360.77,601.86Z" style="fill:#329eb4"/><path d="M389.32,350.15c0-13.36.05-26.72-.05-40.07a5.17,5.17,0,0,1,2.51-4.85q43.1-30.23,86.11-60.53a4.84,4.84,0,0,0,2.28-4.61c-.07-12.69-.1-25.39,0-38.09,0-2.47-.58-3.86-3-5.07-14.44-7.36-21.86-22.12-19.67-38.56,1.9-14.27,14-26.86,29-30.11,17.53-3.8,37.25,7.61,42.29,25,5.34,18.4-2.79,35.75-19,44.05a3.75,3.75,0,0,0-2.39,4c.06,17.78,0,35.55.09,53.32a4.91,4.91,0,0,1-2.39,4.6C477,279,449,298.83,421,318.54c-2.78,2-4,3.95-3.95,7.5.2,21.52.06,43,.15,64.58,0,2.37-.43,3.26-3,3.19-7.17-.2-14.36-.22-21.53,0-2.92.09-3.37-1-3.35-3.59.12-13.35.06-26.71.06-40.07ZM493.81,179.9a15.56,15.56,0,0,0,15.44-15.33c.24-9.65-8.41-16.1-15.87-15.9A16,16,0,0,0,478,164.56,15.62,15.62,0,0,0,493.81,179.9Z" style="fill:#f39522"/><path d="M468.94,337.46c13.14,0,26.28,0,39.42,0a4.65,4.65,0,0,1,4.36,2.2q30.1,42.94,60.29,85.86a6,6,0,0,0,5.69,2.83c10-.14,20.1-.13,30.15-.05,3.06,0,6.11.68,9.2,0,1-.23,1.8-.29,2.33-1.37,3.13-6.4,7.38-11.95,13.55-15.63,7.47-4.45,15.47-6.85,24.38-5.6,14.16,2,24,9.64,29.5,22.59,7.49,17.7-1.08,38.93-18.51,46.93-17.86,8.18-39.43.79-48.08-16.66-1.16-2.33-2.41-3.07-5-3.05-17.45.12-34.9,0-52.34.12a5.43,5.43,0,0,1-5.12-2.58c-19.95-28.32-40-56.56-60-84.88a6.08,6.08,0,0,0-5.66-2.93c-21.09.11-42.18,0-63.28.13-2.73,0-3.54-.69-3.46-3.47.22-6.95.23-13.92,0-20.87-.1-3,.93-3.62,3.75-3.58C443.1,337.54,456,337.46,468.94,337.46ZM638.27,441.84a15.34,15.34,0,0,0,15.54,15.49,15.6,15.6,0,0,0,15.64-15.48,15.83,15.83,0,0,0-15.81-15.72A15.53,15.53,0,0,0,638.27,441.84Z" style="fill:#3cb34c"/><path d="M279.49,276.58c0-7.84.05-15.68,0-23.52a5,5,0,0,1,2.52-4.6c12.6-8.89,25.1-17.93,37.69-26.84,11.78-8.32,23.65-16.54,35.47-24.81,4.48-3.14,9-6.25,13.41-9.46,2.27-1.65,1.58-6.95-1-8.34-9.72-5.3-16.47-13.09-19.28-23.86-1.1-4.24-2.79-8.69-.16-13.09.2-.32,0-.86.05-1.31.57-13,8.48-21,19-27a33.45,33.45,0,0,1,18.12-4.1,36.44,36.44,0,0,1,33.77,46.23c-2.77,9.81-8.3,17.49-17.83,22-2.47,1.16-4.38,2.84-4,6.38.47,4.48,0,9,.16,13.57a4.74,4.74,0,0,1-2.34,4.6c-11.71,8.17-23.35,16.45-35,24.66q-18.28,12.86-36.62,25.67c-4.75,3.34-9.41,6.8-14.2,10.09a4.68,4.68,0,0,0-2.15,4.43c.09,11,0,22.08.11,33.12,0,2.4-.59,3.23-3.14,3.16-6.95-.17-13.92-.15-20.87.06-2.95.08-3.78-.95-3.72-3.81.17-7.72.06-15.45.06-23.18ZM384.23,161.36c8.92.69,15.47-7.75,15.43-15,0-8.28-7.12-16.24-16-15.81s-15.8,7.2-15.31,16C368.83,155.05,374.82,161.83,384.23,161.36Z" style="fill:#f39522"/><path d="M590.37,489.27c0,7.62-.09,15.24,0,22.86a6.8,6.8,0,0,1-3.27,6.26q-23.48,16.32-46.82,32.82Q521,564.86,501.84,578.68c-3.2,2.29-2.78,6.74.74,8.68,15.63,8.61,23.8,26,19.16,41.74-4.45,15.13-14.62,24.59-30.31,26.88-15.36,2.23-27.78-3.45-36.27-16.6-11.56-17.89-4.87-41.92,14.33-51.73,2.42-1.24,3.35-2.59,3.21-5.29-.24-4.74,0-9.5-.12-14.24a4.27,4.27,0,0,1,2.09-4.08q29.94-20.94,59.8-42,12.94-9.09,25.94-18.11A5.28,5.28,0,0,0,563,499c-.11-11.26,0-22.52-.11-33.78,0-2.56.8-3.18,3.2-3.13q10.61.21,21.2,0c2.31,0,3.07.68,3,3-.11,8,0,16.11,0,24.17ZM486.05,635.69a15.57,15.57,0,1,0,.14-31.14,15.57,15.57,0,1,0-.14,31.14Z" style="fill:#329eb4"/><path d="M328,538.3c-7.84,0-15.68,0-23.52,0a3.85,3.85,0,0,1-3.67-1.63Q282,510.06,263.23,483.48q-11.94-16.86-24-33.66a5.06,5.06,0,0,0-8.44.64c-9.49,17.35-27.86,24.63-45.77,18.14-13.49-4.88-23.24-18.26-23.41-33.82-.17-14.62,6.45-25.8,19.54-32.86,18.24-9.85,41.26-1.89,49.9,17a2.78,2.78,0,0,0,3,1.83c5.3-.06,10.61.06,15.9-.07a4.27,4.27,0,0,1,4,2.13q25.82,36.84,51.74,73.62c2.75,3.91,5.77,7.68,8.16,11.81,2.12,3.68,5.46,2.85,8.43,2.89,9.81.13,19.63,0,29.44-.2,2.18,0,2.91.62,2.89,2.79q-.14,10.92,0,21.86c0,2.18-.69,2.79-2.87,2.76-7.95-.14-15.9-.06-23.85-.06ZM197.89,449.61a15.18,15.18,0,0,0,15.62-15.37,15.89,15.89,0,0,0-15.42-15.84,16.13,16.13,0,0,0-15.87,15.48C182,442.59,188.93,449.53,197.89,449.61Z" style="fill:#666868"/><path d="M542.57,228c7.4,0,14.8.09,22.2,0a5.12,5.12,0,0,1,4.88,2.45q30,42.45,60,84.82c1.22,1.72,2.24,3.22,4.89,3.18s4-.86,5.22-3.29a36.57,36.57,0,0,1,41.68-18.58c16,4.27,27.57,20.08,26.87,36.7a36.32,36.32,0,0,1-69,14.8c-1-2-2.09-2.73-4.24-2.67-4.86.13-9.72-.08-14.58.1a5,5,0,0,1-4.84-2.51Q585.94,300.39,556,257.9a5.68,5.68,0,0,0-5.36-2.84c-10.27.16-20.54,0-30.81.1-2.09,0-2.87-.47-2.82-2.76.16-7.28.14-14.57,0-21.86,0-2.09.67-2.59,2.65-2.57C527.34,228.08,535,228,542.57,228ZM687.78,332a15.66,15.66,0,0,0-15.86-15.67c-8.64,0-15.52,7.06-15.56,16-.05,8.29,7.41,15.69,15.71,15.6A16,16,0,0,0,687.78,332Z" style="fill:#3cb34c"/><path d="M546.55,312.33c.06,2.13-.93,3.25-2.87,3.4-1.51.12-2.7-.6-2.72-2.15,0-2.29,1.78-2.71,3.6-2.92C545.89,310.51,546.66,311,546.55,312.33Z" style="fill:#666868"/><path d="M764.34,377.45c-5.09-16-16.92-26.25-33.11-26.93-15.89-.66-27.78,6.63-35,21-.83,1.65-1.87,1.84-3.39,1.83-7.06,0-14.13,0-21.2-.07a5.58,5.58,0,0,0-1.07.07h-6.76c-.34,0-.69,0-1.07,0-16.24,0-32.47,0-48.71,0h-1.32l-6,0a5.19,5.19,0,0,1-4.87-2.49q-30.1-42.9-60.31-85.73a5.5,5.5,0,0,0-5.14-2.67c-15.78.11-31.57.08-47.36,0a7.84,7.84,0,0,0-4.91,1.47c-11.23,8-22.51,15.95-33.74,24-.79.56-2,.85-2.24,2.23,24.46,0,48.75.07,73-.07a7.13,7.13,0,0,1,6.68,3.52c19.8,28.16,39.75,56.21,59.59,84.34a5.12,5.12,0,0,0,4.82,2.55c8.26-.14,16.52,0,24.79,0q11.5,0,23,0c.51,0,1.19.23,1.66,0h7.37c10,0,20,0,30,0h2.3l10.8-.05c2.3,0,3.39.72,4.47,2.81,6.6,12.73,17.29,19.68,31.53,20.15s25.12-6.22,32.61-18.39c1.79-2.91,2.52-6.25,4.16-9.2V378.52A5.24,5.24,0,0,1,764.34,377.45Zm-35.4,25.45a15.93,15.93,0,0,1,0-31.85c9,0,15.69,6.81,15.68,16A15.63,15.63,0,0,1,728.94,402.9Z" style="fill:#3cb34c"/></svg>